<svg xmlns="http://www.w3.org/2000/svg" viewBox="0 0 800 600" width="100%" height="100%">
  <defs>
    <linearGradient id="bgFroz" x1="0%" y1="0%" x2="100%" y2="100%">
      <stop offset="0%" stop-color="#F0F9FF"/>
      <stop offset="100%" stop-color="#E0F2FE"/>
    </linearGradient>
  </defs>

  <rect width="800" height="600" fill="url(#bgFroz)"/>

  <!-- PINK & BLUE FROZEN GIFT BAGS (MARYAM TURNS 4) -->
  <g transform="translate(100, 110)">
    <path d="M 20 -20 L 40 20 L 60 -30 L 80 20 Z" fill="#38BDF8"/>
    <path d="M 35 40 Q 60 10 85 40" stroke="#FFFFFF" stroke-width="4" fill="none"/>
    <rect x="15" y="40" width="110" height="180" rx="12" fill="#38BDF8" stroke="#0284C7" stroke-width="3"/>
    <rect x="25" y="100" width="90" height="70" fill="#FFFFFF" rx="8" stroke="#38BDF8" stroke-width="2"/>
    <text x="70" y="125" font-family="'Plus Jakarta Sans', sans-serif" font-size="10" font-weight="900" fill="#0284C7" text-anchor="middle">Maryam</text>
    <text x="70" y="140" font-family="sans-serif" font-size="8" fill="#DB2777" text-anchor="middle">TURNS 4</text>
  </g>

  <g transform="translate(320, 80)">
    <path d="M 25 -30 L 55 30 L 85 -40 L 115 30 Z" fill="#F472B6"/>
    <path d="M 45 50 Q 80 10 115 50" stroke="#FFFFFF" stroke-width="5" fill="none"/>
    <rect x="15" y="50" width="130" height="210" rx="14" fill="#F472B6" stroke="#DB2777" stroke-width="4"/>
    <rect x="25" y="120" width="110" height="85" fill="#FFFFFF" rx="10" stroke="#F472B6" stroke-width="2"/>
    <text x="80" y="150" font-family="'Plus Jakarta Sans', sans-serif" font-size="14" font-weight="900" fill="#0284C7" text-anchor="middle">Maryam</text>
    <text x="80" y="170" font-family="'Plus Jakarta Sans', sans-serif" font-size="16" font-weight="900" fill="#DB2777" text-anchor="middle">TURNS 4</text>
  </g>

  <g transform="translate(560, 110)">
    <path d="M 20 -20 L 40 20 L 60 -30 L 80 20 Z" fill="#38BDF8"/>
    <rect x="15" y="40" width="110" height="180" rx="12" fill="#38BDF8" stroke="#0284C7" stroke-width="3"/>
    <rect x="25" y="100" width="90" height="70" fill="#FFFFFF" rx="8" stroke="#38BDF8" stroke-width="2"/>
    <text x="70" y="125" font-family="'Plus Jakarta Sans', sans-serif" font-size="10" font-weight="900" fill="#0284C7" text-anchor="middle">Maryam</text>
    <text x="70" y="140" font-family="sans-serif" font-size="8" fill="#DB2777" text-anchor="middle">TURNS 4</text>
  </g>

  <!-- FRONT TABLE FROZEN COLORING BOOKS & SLIME -->
  <g transform="translate(220, 340)">
    <rect x="0" y="0" width="160" height="170" rx="10" fill="#FFFFFF" stroke="#0284C7" stroke-width="3"/>
    <rect x="10" y="15" width="140" height="35" fill="#38BDF8" rx="6"/>
    <text x="80" y="38" font-family="'Plus Jakarta Sans', sans-serif" font-size="12" font-weight="900" fill="#FFFFFF" text-anchor="middle">COLORING BOOK</text>
    <circle cx="80" cy="110" r="30" fill="#E0F2FE"/>
    <text x="80" y="115" font-family="sans-serif" font-size="20" fill="#0284C7" text-anchor="middle">❄</text>
  </g>
  <g transform="translate(420, 340)">
    <rect x="0" y="0" width="160" height="170" rx="10" fill="#FFFFFF" stroke="#0284C7" stroke-width="3"/>
    <rect x="10" y="15" width="140" height="35" fill="#38BDF8" rx="6"/>
    <text x="80" y="38" font-family="'Plus Jakarta Sans', sans-serif" font-size="12" font-weight="900" fill="#FFFFFF" text-anchor="middle">COLORING BOOK</text>
    <circle cx="80" cy="110" r="30" fill="#E0F2FE"/>
    <text x="80" y="115" font-family="sans-serif" font-size="20" fill="#0284C7" text-anchor="middle">❄</text>
  </g>

  <!-- Slime Tubs (Pink & Blue) -->
  <circle cx="140" cy="380" r="35" fill="#FBCFE8" stroke="#F472B6" stroke-width="3"/>
  <circle cx="660" cy="380" r="35" fill="#BAE6FD" stroke="#38BDF8" stroke-width="3"/>

  <!-- Title Badge -->
  <rect x="140" y="525" width="520" height="50" rx="25" fill="#0369A1"/>
  <text x="400" y="557" font-family="'Plus Jakarta Sans', sans-serif" font-weight="800" font-size="18" fill="#FFFFFF" text-anchor="middle" letter-spacing="2">FROZEN MARYAM TURNS 4 GOODIE BAGS</text>
</svg>
